<svg width="294" height="168" viewBox="0 0 294 168" fill="none" xmlns="http://www.w3.org/2000/svg">
<g filter="url(#filter0_d_6_544)">
<g clip-path="url(#clip0_6_544)">
<mask id="mask0_6_544" style="mask-type:alpha" maskUnits="userSpaceOnUse" x="4" y="17" width="285" height="125">
<rect x="4" y="17.0515" width="284.934" height="124.056" fill="url(#paint0_linear_6_544)"/>
</mask>
<g mask="url(#mask0_6_544)">
<path d="M253.222 33.3445L237.117 27.9646L170.791 28.1722L159.31 24.0477L149.595 28.0833L108.084 27.9696L91.635 20.4274H67.7184L64.0189 27.9671H43.174L4 90.351L47.6074 139.573H245.42L289.028 90.351L253.219 33.3421L253.222 33.3445ZM244.414 137.342H48.6132L6.78261 90.1237L44.4121 30.1986H65.4152L69.1121 22.6589H91.1482L107.592 30.1986L150.038 30.3148L159.367 26.4374L170.403 30.4038L236.756 30.1962L251.754 35.2054L286.245 90.1187L244.414 137.337V137.342Z" fill="url(#paint1_linear_6_544)"/>
</g>
<path d="M286.247 90.1235L244.414 137.339H48.6132L6.78255 90.1235L44.4121 30.1984H65.4151L69.1121 22.6587H91.1481L107.594 30.1984L150.038 30.3171L159.367 26.4397L170.403 30.406L236.756 30.1984L251.754 35.2101L286.247 90.1235Z" fill="url(#paint2_linear_6_544)"/>
<path d="M286.242 90.1234L251.756 35.2101L236.753 30.2009L170.405 30.4035L159.368 26.4372L150.035 30.3146L107.591 30.2009L91.1475 22.6611H69.114L65.417 30.2009H44.4164L6.78445 90.1234H31.9491L50.9158 104.222H81.6333L86.2322 90.1234H106.158L110.737 70.1756H115.282L121.42 67.5017L120.133 81.0392L137.105 90.1234H286.242Z" fill="#4A357D"/>
<path d="M20.1099 82.7567H41.5479L45.2325 75.689H35.7257L42.4524 63.8962L53.4741 59.883L56.9561 53.2106L46.4657 56.8606L52.0482 47.0721L48.759 42.1024H54.8852H62.7486L65.1136 37.5677H48.4896L20.1099 82.7567Z" fill="white"/>
<path d="M73.7086 30.0253L61.2634 55.4197L76.3528 64.3755L82.2739 67.4348L73.3132 72.3007L66.9893 88.7814H56.8399L67.6936 63.6909L59.5855 58.8424L44.2564 90.1159L53.3481 96.8549H76.2885L87.6538 62.0006L72.122 53.4526L80.4822 34.1275H87.9553L93.0411 36.2651L85.8473 39.6236L80.9369 52.427L89.307 56.9247L96.958 33.4603L89.5294 30.0253H73.7086Z" fill="white"/>
<path d="M101.685 37.5673L88.7065 82.7563H100.289L104.871 62.8085H113.748L124.774 58.0069L126.818 41.415L118.307 37.5673H101.683H101.685ZM116.57 47.2026L114.79 57.0505H106.195L109.628 42.0995H117.491L123.294 44.4595L116.57 47.2001V47.2026Z" fill="white"/>
<path d="M131.667 37.5673L127.93 76.8575L138.952 82.7563H160.39L157.54 41.415L148.293 37.5673H131.669H131.667ZM148.449 51.4704L148.726 75.6861H139.219L140.482 42.0995H148.345L154.387 44.4595L148.451 51.4704H148.449Z" fill="white"/>
<path d="M163.879 41.4323L168.364 82.7563H179.947L176.633 62.8085H185.51L189.8 82.7563H201.385L196.188 63.6907L189.37 60.8043L194.639 58.0069L189.066 37.5673H172.442L163.879 41.4323V41.4323ZM184.274 57.0505H175.679L174.053 47.2545L167.346 44.462L173.196 42.102H181.059L184.274 57.053V57.0505Z" fill="white"/>
<path d="M193.363 42.102H201.106L214.922 82.7563H226.508L212.303 47.0123L204.19 42.0476H217.95L215.958 37.5673H192.041L193.363 42.102Z" fill="white"/>
<path d="M256.696 56.9245L246.922 41.3631L235.555 37.5673H218.931L227.214 55.4195L250.847 64.3752L257.302 75.6886H247.792L241.538 63.6907L228.801 58.8421L237.159 76.8575L251.479 82.7563H272.917L259.882 62.0004L236.197 53.4524L232.878 47.0865L224.157 42.102H238.142L244.031 52.4268L256.696 56.9245Z" fill="white"/>
<path d="M159.756 32.1526C158.543 33.3364 157.169 34.4336 155.659 35.4295C157.31 36.4353 158.879 37.582 160.344 38.8497C161.587 37.582 162.956 36.4353 164.429 35.4295C162.744 34.4336 161.177 33.3364 159.756 32.1526Z" fill="#E2D45C"/>
<path d="M33.1733 77.1714L40.1299 64.9734C37.5499 65.2675 34.9922 65.569 32.4567 65.8828L22.7917 81.2737H40.6488L42.7864 77.1714H33.1733V77.1714Z" fill="url(#paint3_linear_6_544)"/>
<path d="M83.0503 61.16C80.2875 61.3404 77.5419 61.5331 74.8137 61.7382L77.0724 63.0777L84.4935 66.9105L85.8626 62.707L83.0503 61.16V61.16ZM74.4998 73.3407L68.0104 90.2637H54.5841L65.8184 64.296L63.1148 62.6798C61.8002 62.7935 60.4879 62.9096 59.1831 63.0307L46.1325 89.6583L53.8378 95.3718H75.2116L84.0932 68.1338L74.4998 73.3407V73.3407Z" fill="url(#paint4_linear_6_544)"/>
<path d="M117.71 59.4672L113.442 61.3256H103.693L99.1115 81.2734H90.6771L96.6847 60.3544C103.599 59.9911 110.61 59.6946 117.71 59.4672Z" fill="url(#paint5_linear_6_544)"/>
<path d="M158.801 81.2736H139.325L129.499 76.0173L131.108 59.1165C133.518 59.0671 135.935 59.0275 138.361 58.9954L137.679 77.1714H150.226L150.018 58.899C151.128 58.8966 152.24 58.8941 153.354 58.8941C154.659 58.8941 155.961 58.8966 157.259 58.9015L158.801 81.2736V81.2736Z" fill="url(#paint6_linear_6_544)"/>
<path d="M199.445 81.2734H190.999L186.709 61.3256H174.884L178.198 81.2734H169.694L167.275 58.9804C174.511 59.0694 181.67 59.23 188.743 59.4574L185.923 60.9549L194.948 64.7755L199.445 81.2734V81.2734Z" fill="url(#paint7_linear_6_544)"/>
<path d="M216.144 60.6929C213.727 60.5521 211.298 60.4186 208.857 60.295L215.986 81.2734H224.324L216.144 60.6929Z" fill="url(#paint8_linear_6_544)"/>
<path d="M259.517 64.2049C257.038 63.9454 254.542 63.6933 252.027 63.4512L259.855 77.1715H246.894L240.483 64.8771L232.321 61.7682C232.138 61.7534 231.958 61.7411 231.775 61.7287L238.262 75.7085L251.772 81.2737H270.237L259.517 64.2049V64.2049Z" fill="url(#paint9_linear_6_544)"/>
<path fill-rule="evenodd" clip-rule="evenodd" d="M122.121 116.01V112.96L113.696 116.094H113.679V119.222H113.696L122.121 122.356V119.302L117.803 117.651L122.121 116.01V116.01Z" fill="#996DFF"/>
<path fill-rule="evenodd" clip-rule="evenodd" d="M170.918 122.198V119.148L175.233 117.507L170.918 115.867V112.817L179.33 115.948H179.35V119.079H179.33L170.918 122.195V122.198ZM167.305 108.51L162.358 124.39H165.296L170.243 108.51H167.305Z" fill="#996DFF"/>
<path fill-rule="evenodd" clip-rule="evenodd" d="M134.5 112.384C135.335 113.304 135.775 114.515 135.723 115.755V122.519H132.784V116.375C132.819 115.691 132.599 115.019 132.172 114.485C131.764 114.011 131.161 113.749 130.536 113.776C128.697 113.776 127.775 115.051 127.775 117.604V122.521H124.837V111.416H127.775V112.419C128.707 111.512 129.972 111.03 131.272 111.085C132.483 111.033 133.659 111.507 134.497 112.384H134.5Z" fill="white"/>
<path fill-rule="evenodd" clip-rule="evenodd" d="M139.462 106.797V122.677H142.4V106.797H139.462Z" fill="white"/>
<path fill-rule="evenodd" clip-rule="evenodd" d="M159.001 122.096H156.55L154.148 115.555L151.723 122.096H149.277L145.16 110.971H148.298L150.611 117.623L152.996 110.971H155.287L157.672 117.646L159.985 110.971H163.123L159.001 122.096V122.096Z" fill="white"/>
<path d="M15.9785 25.9284C19.3047 17.8944 26.0216 11.5631 35.9362 7.11235C45.4356 2.847 57.473 0.474612 71.7098 0.0643868C100.895 -0.778305 136.128 6.68977 170.91 21.0996C173.411 22.135 175.89 23.1976 178.341 24.2875L174.874 24.2973C173.386 23.6523 171.886 23.0172 170.374 22.392C99.1109 -7.12444 30.4278 -5.2982 17.2709 26.4646C13.4603 35.6626 14.7181 46.3754 20.1598 57.6739C33.502 85.3962 72.0212 116.635 122.652 137.606C127.55 139.635 132.453 141.523 137.348 143.27C167.05 153.877 196.386 159.252 221.276 158.532C235.33 158.127 247.185 155.797 256.516 151.608C266.097 147.308 272.569 141.226 275.755 133.533C278.629 126.592 278.619 118.788 276.101 110.519L277.176 109.305C280.127 118.419 280.087 126.74 277.05 134.07C273.721 142.104 267.007 148.435 257.09 152.886C247.59 157.151 235.555 159.523 221.318 159.934C219.831 159.976 218.328 159.998 216.811 159.998C191.72 159.998 162.577 154.148 133.256 143.27C129.542 141.894 125.827 140.436 122.116 138.898C87.333 124.491 57.1394 104.862 37.0977 83.6268C29.2169 75.2765 23.2464 67.0374 19.2899 59.0578C18.336 57.1376 17.5007 55.2348 16.7841 53.3492C12.9215 43.1899 12.6497 33.9648 15.9785 25.9284V25.9284Z" fill="url(#paint10_linear_6_544)"/>
<path d="M15.9785 25.9284C19.3047 17.8944 26.0216 11.5631 35.9362 7.11235C45.4356 2.847 57.473 0.474612 71.7098 0.0643868C100.895 -0.778305 136.128 6.68977 170.91 21.0996C173.411 22.135 175.89 23.1976 178.341 24.2875L174.874 24.2973C173.386 23.6523 171.886 23.0172 170.374 22.392C99.1109 -7.12444 30.4278 -5.2982 17.2709 26.4646C13.4603 35.6626 14.7181 46.3754 20.1598 57.6739C33.502 85.3962 72.0212 116.635 122.652 137.606C127.55 139.635 132.453 141.523 137.348 143.27C167.05 153.877 196.386 159.252 221.276 158.532C235.33 158.127 247.185 155.797 256.516 151.608C266.097 147.308 272.569 141.226 275.755 133.533C278.629 126.592 278.619 118.788 276.101 110.519L277.176 109.305C280.127 118.419 280.087 126.74 277.05 134.07C273.721 142.104 267.007 148.435 257.09 152.886C247.59 157.151 235.555 159.523 221.318 159.934C219.831 159.976 218.328 159.998 216.811 159.998C191.72 159.998 162.577 154.148 133.256 143.27C129.542 141.894 125.827 140.436 122.116 138.898C87.333 124.491 57.1394 104.862 37.0977 83.6268C29.2169 75.2765 23.2464 67.0374 19.2899 59.0578C18.336 57.1376 17.5007 55.2348 16.7841 53.3492C12.9215 43.1899 12.6497 33.9648 15.9785 25.9284V25.9284Z" fill="url(#paint11_radial_6_544)"/>
<path d="M15.9785 25.9284C19.3047 17.8944 26.0216 11.5631 35.9362 7.11235C45.4356 2.847 57.473 0.474612 71.7098 0.0643868C100.895 -0.778305 136.128 6.68977 170.91 21.0996C173.411 22.135 175.89 23.1976 178.341 24.2875L174.874 24.2973C173.386 23.6523 171.886 23.0172 170.374 22.392C99.1109 -7.12444 30.4278 -5.2982 17.2709 26.4646C13.4603 35.6626 14.7181 46.3754 20.1598 57.6739C33.502 85.3962 72.0212 116.635 122.652 137.606C127.55 139.635 132.453 141.523 137.348 143.27C167.05 153.877 196.386 159.252 221.276 158.532C235.33 158.127 247.185 155.797 256.516 151.608C266.097 147.308 272.569 141.226 275.755 133.533C278.629 126.592 278.619 118.788 276.101 110.519L277.176 109.305C280.127 118.419 280.087 126.74 277.05 134.07C273.721 142.104 267.007 148.435 257.09 152.886C247.59 157.151 235.555 159.523 221.318 159.934C219.831 159.976 218.328 159.998 216.811 159.998C191.72 159.998 162.577 154.148 133.256 143.27C129.542 141.894 125.827 140.436 122.116 138.898C87.333 124.491 57.1394 104.862 37.0977 83.6268C29.2169 75.2765 23.2464 67.0374 19.2899 59.0578C18.336 57.1376 17.5007 55.2348 16.7841 53.3492C12.9215 43.1899 12.6497 33.9648 15.9785 25.9284V25.9284Z" fill="url(#paint12_radial_6_544)"/>
<path d="M15.9785 25.9284C19.3047 17.8944 26.0216 11.5631 35.9362 7.11235C45.4356 2.847 57.473 0.474612 71.7098 0.0643868C100.895 -0.778305 136.128 6.68977 170.91 21.0996C173.411 22.135 175.89 23.1976 178.341 24.2875L174.874 24.2973C173.386 23.6523 171.886 23.0172 170.374 22.392C99.1109 -7.12444 30.4278 -5.2982 17.2709 26.4646C13.4603 35.6626 14.7181 46.3754 20.1598 57.6739C33.502 85.3962 72.0212 116.635 122.652 137.606C127.55 139.635 132.453 141.523 137.348 143.27C167.05 153.877 196.386 159.252 221.276 158.532C235.33 158.127 247.185 155.797 256.516 151.608C266.097 147.308 272.569 141.226 275.755 133.533C278.629 126.592 278.619 118.788 276.101 110.519L277.176 109.305C280.127 118.419 280.087 126.74 277.05 134.07C273.721 142.104 267.007 148.435 257.09 152.886C247.59 157.151 235.555 159.523 221.318 159.934C219.831 159.976 218.328 159.998 216.811 159.998C191.72 159.998 162.577 154.148 133.256 143.27C129.542 141.894 125.827 140.436 122.116 138.898C87.333 124.491 57.1394 104.862 37.0977 83.6268C29.2169 75.2765 23.2464 67.0374 19.2899 59.0578C18.336 57.1376 17.5007 55.2348 16.7841 53.3492C12.9215 43.1899 12.6497 33.9648 15.9785 25.9284V25.9284Z" fill="url(#paint13_radial_6_544)"/>
<path d="M277.05 25.9284C273.723 17.8944 267.007 11.5631 257.092 7.11235C247.592 2.847 235.555 0.474612 221.318 0.0643868C192.133 -0.778305 156.901 6.68977 122.118 21.0996C119.617 22.135 117.138 23.1976 114.687 24.2875L118.154 24.2973C119.642 23.6523 121.142 23.0172 122.654 22.392C193.917 -7.12444 262.6 -5.2982 275.757 26.4646C279.568 35.6626 278.31 46.3754 272.868 57.6739C259.526 85.3962 221.007 116.635 170.376 137.606C165.478 139.635 160.575 141.523 155.68 143.27C125.978 153.877 96.6419 159.252 71.7516 158.532C57.6977 158.127 45.8432 155.797 36.5118 151.608C26.9308 147.308 20.4586 141.226 17.2732 133.533C14.3992 126.592 14.409 118.788 16.9272 110.519L15.8522 109.305C12.9016 118.419 12.9411 126.74 15.9783 134.07C19.307 142.104 26.0214 148.435 35.9385 152.886C45.4379 157.151 57.4728 159.523 71.7096 159.934C73.1973 159.976 74.6998 159.998 76.2171 159.998C101.308 159.998 130.451 154.148 159.772 143.27C163.486 141.894 167.201 140.436 170.912 138.898C205.695 124.491 235.889 104.862 255.93 83.6268C263.811 75.2765 269.782 67.0374 273.738 59.0578C274.692 57.1376 275.527 55.2348 276.244 53.3492C280.107 43.1899 280.378 33.9648 277.05 25.9284V25.9284Z" fill="url(#paint14_linear_6_544)"/>
<path d="M277.05 25.9284C273.723 17.8944 267.007 11.5631 257.092 7.11235C247.592 2.847 235.555 0.474612 221.318 0.0643868C192.133 -0.778305 156.901 6.68977 122.118 21.0996C119.617 22.135 117.138 23.1976 114.687 24.2875L118.154 24.2973C119.642 23.6523 121.142 23.0172 122.654 22.392C193.917 -7.12444 262.6 -5.2982 275.757 26.4646C279.568 35.6626 278.31 46.3754 272.868 57.6739C259.526 85.3962 221.007 116.635 170.376 137.606C165.478 139.635 160.575 141.523 155.68 143.27C125.978 153.877 96.6419 159.252 71.7516 158.532C57.6977 158.127 45.8432 155.797 36.5118 151.608C26.9308 147.308 20.4586 141.226 17.2732 133.533C14.3992 126.592 14.409 118.788 16.9272 110.519L15.8522 109.305C12.9016 118.419 12.9411 126.74 15.9783 134.07C19.307 142.104 26.0214 148.435 35.9385 152.886C45.4379 157.151 57.4728 159.523 71.7096 159.934C73.1973 159.976 74.6998 159.998 76.2171 159.998C101.308 159.998 130.451 154.148 159.772 143.27C163.486 141.894 167.201 140.436 170.912 138.898C205.695 124.491 235.889 104.862 255.93 83.6268C263.811 75.2765 269.782 67.0374 273.738 59.0578C274.692 57.1376 275.527 55.2348 276.244 53.3492C280.107 43.1899 280.378 33.9648 277.05 25.9284V25.9284Z" fill="url(#paint15_radial_6_544)"/>
<path d="M277.05 25.9284C273.723 17.8944 267.007 11.5631 257.092 7.11235C247.592 2.847 235.555 0.474612 221.318 0.0643868C192.133 -0.778305 156.901 6.68977 122.118 21.0996C119.617 22.135 117.138 23.1976 114.687 24.2875L118.154 24.2973C119.642 23.6523 121.142 23.0172 122.654 22.392C193.917 -7.12444 262.6 -5.2982 275.757 26.4646C279.568 35.6626 278.31 46.3754 272.868 57.6739C259.526 85.3962 221.007 116.635 170.376 137.606C165.478 139.635 160.575 141.523 155.68 143.27C125.978 153.877 96.6419 159.252 71.7516 158.532C57.6977 158.127 45.8432 155.797 36.5118 151.608C26.9308 147.308 20.4586 141.226 17.2732 133.533C14.3992 126.592 14.409 118.788 16.9272 110.519L15.8522 109.305C12.9016 118.419 12.9411 126.74 15.9783 134.07C19.307 142.104 26.0214 148.435 35.9385 152.886C45.4379 157.151 57.4728 159.523 71.7096 159.934C73.1973 159.976 74.6998 159.998 76.2171 159.998C101.308 159.998 130.451 154.148 159.772 143.27C163.486 141.894 167.201 140.436 170.912 138.898C205.695 124.491 235.889 104.862 255.93 83.6268C263.811 75.2765 269.782 67.0374 273.738 59.0578C274.692 57.1376 275.527 55.2348 276.244 53.3492C280.107 43.1899 280.378 33.9648 277.05 25.9284V25.9284Z" fill="url(#paint16_radial_6_544)"/>
</g>
</g>
<defs>
<filter id="filter0_d_6_544" x="0" y="0" width="293.03" height="167.998" filterUnits="userSpaceOnUse" color-interpolation-filters="sRGB">
<feFlood flood-opacity="0" result="BackgroundImageFix"/>
<feColorMatrix in="SourceAlpha" type="matrix" values="0 0 0 0 0 0 0 0 0 0 0 0 0 0 0 0 0 0 127 0" result="hardAlpha"/>
<feOffset dy="4"/>
<feGaussianBlur stdDeviation="2"/>
<feComposite in2="hardAlpha" operator="out"/>
<feColorMatrix type="matrix" values="0 0 0 0 0 0 0 0 0 0 0 0 0 0 0 0 0 0 0.25 0"/>
<feBlend mode="normal" in2="BackgroundImageFix" result="effect1_dropShadow_6_544"/>
<feBlend mode="normal" in="SourceGraphic" in2="effect1_dropShadow_6_544" result="shape"/>
</filter>
<linearGradient id="paint0_linear_6_544" x1="146.467" y1="74.7549" x2="146.467" y2="135.547" gradientUnits="userSpaceOnUse">
<stop stop-color="#D9D9D9"/>
<stop offset="1" stop-color="#D9D9D9" stop-opacity="0"/>
</linearGradient>
<linearGradient id="paint1_linear_6_544" x1="4" y1="79.999" x2="289.03" y2="79.999" gradientUnits="userSpaceOnUse">
<stop stop-color="#996DFF"/>
<stop offset="0.5" stop-color="#35E8B3"/>
<stop offset="1" stop-color="#E2D45C"/>
</linearGradient>
<linearGradient id="paint2_linear_6_544" x1="146.514" y1="91.9102" x2="146.514" y2="136.165" gradientUnits="userSpaceOnUse">
<stop stop-color="#28203E"/>
<stop offset="1" stop-color="#121214" stop-opacity="0"/>
</linearGradient>
<linearGradient id="paint3_linear_6_544" x1="32.7903" y1="61.0145" x2="32.7903" y2="78.454" gradientUnits="userSpaceOnUse">
<stop stop-color="#A9A9AD"/>
<stop offset="1" stop-color="#A9A9AD" stop-opacity="0"/>
</linearGradient>
<linearGradient id="paint4_linear_6_544" x1="65.9988" y1="61.0142" x2="65.9988" y2="78.4537" gradientUnits="userSpaceOnUse">
<stop stop-color="#A9A9AD"/>
<stop offset="1" stop-color="#A9A9AD" stop-opacity="0"/>
</linearGradient>
<linearGradient id="paint5_linear_6_544" x1="104.195" y1="61.0142" x2="104.195" y2="78.4537" gradientUnits="userSpaceOnUse">
<stop stop-color="#A9A9AD"/>
<stop offset="1" stop-color="#A9A9AD" stop-opacity="0"/>
</linearGradient>
<linearGradient id="paint6_linear_6_544" x1="144.151" y1="61.0144" x2="144.151" y2="78.4539" gradientUnits="userSpaceOnUse">
<stop stop-color="#A9A9AD"/>
<stop offset="1" stop-color="#A9A9AD" stop-opacity="0"/>
</linearGradient>
<linearGradient id="paint7_linear_6_544" x1="183.36" y1="61.0142" x2="183.36" y2="78.4538" gradientUnits="userSpaceOnUse">
<stop stop-color="#A9A9AD"/>
<stop offset="1" stop-color="#A9A9AD" stop-opacity="0"/>
</linearGradient>
<linearGradient id="paint8_linear_6_544" x1="216.592" y1="61.0142" x2="216.592" y2="78.4537" gradientUnits="userSpaceOnUse">
<stop stop-color="#A9A9AD"/>
<stop offset="1" stop-color="#A9A9AD" stop-opacity="0"/>
</linearGradient>
<linearGradient id="paint9_linear_6_544" x1="251.006" y1="61.0145" x2="251.006" y2="78.454" gradientUnits="userSpaceOnUse">
<stop stop-color="#A9A9AD"/>
<stop offset="1" stop-color="#A9A9AD" stop-opacity="0"/>
</linearGradient>
<linearGradient id="paint10_linear_6_544" x1="262.615" y1="114.542" x2="70.1059" y2="115.53" gradientUnits="userSpaceOnUse">
<stop stop-color="#996DFF"/>
<stop offset="0.5" stop-color="#35E8B3"/>
<stop offset="1" stop-color="#E2D45C"/>
</linearGradient>
<radialGradient id="paint11_radial_6_544" cx="0" cy="0" r="1" gradientUnits="userSpaceOnUse" gradientTransform="translate(144.756 146.21) rotate(15.7611) scale(129.409 214.894)">
<stop stop-color="#171226"/>
<stop offset="1" stop-color="#171226" stop-opacity="0"/>
</radialGradient>
<radialGradient id="paint12_radial_6_544" cx="0" cy="0" r="1" gradientUnits="userSpaceOnUse" gradientTransform="translate(177.937 24.9998) rotate(-157.036) scale(29.126 48.3661)">
<stop stop-color="#261945"/>
<stop offset="1" stop-color="#261945" stop-opacity="0"/>
</radialGradient>
<radialGradient id="paint13_radial_6_544" cx="0" cy="0" r="1" gradientUnits="userSpaceOnUse" gradientTransform="translate(277.481 107.271) rotate(76.7293) scale(33.002 54.8026)">
<stop stop-color="#191326"/>
<stop offset="1" stop-color="#191326" stop-opacity="0"/>
</radialGradient>
<linearGradient id="paint14_linear_6_544" x1="153.846" y1="17.7271" x2="196.876" y2="126.817" gradientUnits="userSpaceOnUse">
<stop stop-color="#996DFF"/>
<stop offset="0.5" stop-color="#35E8B3"/>
<stop offset="1" stop-color="#E2D45C"/>
</linearGradient>
<radialGradient id="paint15_radial_6_544" cx="0" cy="0" r="1" gradientUnits="userSpaceOnUse" gradientTransform="translate(112.029 27.424) rotate(-19.3523) scale(65.8404 109.333)">
<stop stop-color="#171225"/>
<stop offset="1" stop-color="#171225" stop-opacity="0"/>
</radialGradient>
<radialGradient id="paint16_radial_6_544" cx="0" cy="0" r="1" gradientUnits="userSpaceOnUse" gradientTransform="translate(15.9696 108.786) rotate(67.4706) scale(44.2885 73.5446)">
<stop stop-color="#191327"/>
<stop offset="1" stop-color="#191327" stop-opacity="0"/>
</radialGradient>
<clipPath id="clip0_6_544">
<rect width="285.03" height="159.998" fill="white" transform="translate(4)"/>
</clipPath>
</defs>
</svg>
